<svg height="800px" width="800px" version="1.1" id="Capa_1" xmlns="http://www.w3.org/2000/svg" xmlns:xlink="http://www.w3.org/1999/xlink" 
	 viewBox="0 0 56 56" xml:space="preserve">
<path style="fill:#E6E6E6;" d="M36,2.5l-1,0.875v49.529c0.744-0.148,1.406-0.319,2-0.505V2.541C36.374,2.492,36,2.5,36,2.5z"/>
<path style="fill:#E6E6E6;" d="M27,8.581v44.908c0.327,0.006,0.656,0.012,1,0.012s0.673-0.005,1-0.012V8.581
	C28.395,9.005,27.605,9.005,27,8.581z"/>
<path style="fill:#E6E6E6;" d="M23,5.125V53.22c0.622,0.076,1.288,0.138,1.999,0.185L25,6.875L23,5.125z"/>
<path style="fill:#E6E6E6;" d="M20,2.5c0,0-0.374-0.008-1,0.04v49.858c0.594,0.186,1.256,0.357,2,0.505V3.375L20,2.5z"/>
<path style="fill:#E6E6E6;" d="M31,6.875v46.529c0.711-0.046,1.377-0.108,2-0.185V5.125L31,6.875z"/>
<path style="fill:#E6E6E6;" d="M6.991,8.544C6.992,8.56,7,8.573,7,8.589V24.5h2V6.562C8.308,7.14,7.632,7.791,6.991,8.544z"/>
<path style="fill:#E6E6E6;" d="M39,2.819v48.784c0.918-0.464,1.557-0.956,2-1.41V3.323C40.281,3.1,39.609,2.937,39,2.819z"/>
<path style="fill:#E6E6E6;" d="M15,3.323v46.87c0.443,0.454,1.082,0.946,2,1.41V2.819C16.391,2.937,15.719,3.1,15,3.323z"/>
<path style="fill:#E6E6E6;" d="M2,24.5h3V11.432C3.258,14.564,2.063,18.788,2,24.5z"/>
<path style="fill:#E6E6E6;" d="M11,5.123V24.5h2V4.077C12.343,4.369,11.672,4.713,11,5.123z"/>
<path style="fill:#E6E6E6;" d="M49.009,8.544C48.368,7.791,47.692,7.14,47,6.562V24.5h2V8.589C49,8.573,49.008,8.56,49.009,8.544z"
	/>
<path style="fill:#E6E6E6;" d="M43,4.077V24.5h2V5.123C44.328,4.713,43.657,4.369,43,4.077z"/>
<path style="fill:#E6E6E6;" d="M54,24.5c-0.063-5.712-1.258-9.937-3-13.068V24.5H54z"/>
<path style="fill:#38454F;" d="M51,11.432c-0.606-1.089-1.276-2.048-1.991-2.887C49.008,8.56,49,8.573,49,8.589V24.5h2V11.432z"/>
<path style="fill:#38454F;" d="M45,5.123V24.5h2V6.562C46.343,6.014,45.672,5.533,45,5.123z"/>
<path style="fill:#38454F;" d="M9,6.562V24.5h2V5.123C10.328,5.533,9.657,6.014,9,6.562z"/>
<path style="fill:#38454F;" d="M6.991,8.544C6.276,9.384,5.606,10.343,5,11.432V24.5h2V8.589C7,8.573,6.992,8.56,6.991,8.544z"/>
<path style="fill:#38454F;" d="M26.84,8.485L25,6.875l-0.001,46.529c0.631,0.041,1.295,0.07,2.001,0.084V8.581
	C26.948,8.544,26.888,8.528,26.84,8.485z"/>
<path style="fill:#38454F;" d="M21,3.375v49.529c0.61,0.122,1.279,0.227,2,0.316V5.125L21,3.375z"/>
<path style="fill:#38454F;" d="M17,2.819v48.784c0.557,0.282,1.218,0.552,2,0.796V2.541C18.488,2.581,17.805,2.662,17,2.819z"/>
<path style="fill:#38454F;" d="M13,4.077V24.5h1v24c0,0,0.093,0.763,1,1.692V3.323C14.361,3.522,13.689,3.771,13,4.077z"/>
<path style="fill:#38454F;" d="M29.16,8.485C29.112,8.528,29.052,8.544,29,8.581v44.908c0.705-0.014,1.369-0.043,2-0.084V6.875
	L29.16,8.485z"/>
<path style="fill:#38454F;" d="M33,5.125V53.22c0.721-0.089,1.39-0.194,2-0.316V3.375L33,5.125z"/>
<path style="fill:#38454F;" d="M41,3.323v46.87c0.907-0.929,1-1.692,1-1.692v-24h1V4.077C42.311,3.771,41.639,3.522,41,3.323z"/>
<path style="fill:#38454F;" d="M37,2.541v49.858c0.782-0.245,1.443-0.515,2-0.796V2.819C38.195,2.662,37.512,2.581,37,2.541z"/>
<path style="fill:#DF4D60;" d="M14,29.5H2.252C1.008,29.5,0,28.492,0,27.248v-0.495C0,25.509,1.008,24.5,2.252,24.5H14V29.5z"/>
<path style="fill:#DF4D60;" d="M53.748,29.5H42v-5h11.748c1.244,0,2.252,1.008,2.252,2.252v0.495C56,28.492,54.992,29.5,53.748,29.5
	z"/>
<path style="fill:#38454F;" d="M28,8.921c-0.414,0-0.828-0.145-1.16-0.436L20,2.5c0,0-1.675-0.044-4,0.541V11.5L28,8.921z"/>
<path style="fill:#38454F;" d="M28,8.921c0.414,0,0.828-0.145,1.16-0.436L36,2.5c0,0,1.675-0.044,4,0.541V11.5L28,8.921z"/>
</svg>