<svg id="Group_155509" data-name="Group 155509" xmlns="http://www.w3.org/2000/svg" width="50" height="50" viewBox="0 0 50 50">
  <rect id="Background" width="50" height="50" rx="25"/>
  <g id="Group_74582" data-name="Group 74582" transform="translate(14.5 10.502)">
    <path id="Apple_logo_black" d="M37.33,23.428a13.555,13.555,0,0,1-1.34,2.41,12.244,12.244,0,0,1-1.727,2.087,3.349,3.349,0,0,1-2.219.977,5.562,5.562,0,0,1-2.05-.489,5.882,5.882,0,0,0-2.207-.488,6.081,6.081,0,0,0-2.269.488,6.106,6.106,0,0,1-1.961.516,3.154,3.154,0,0,1-2.269-1,12.857,12.857,0,0,1-1.806-2.161,14.943,14.943,0,0,1-1.91-3.793,13.89,13.89,0,0,1-.8-4.521,8.256,8.256,0,0,1,1.084-4.319,6.36,6.36,0,0,1,2.271-2.3,6.108,6.108,0,0,1,3.07-.866,7.228,7.228,0,0,1,2.374.553,7.633,7.633,0,0,0,1.883.554,11.269,11.269,0,0,0,2.088-.652,6.9,6.9,0,0,1,2.839-.5A6.027,6.027,0,0,1,37.1,12.4a5.252,5.252,0,0,0-2.785,4.771,5.263,5.263,0,0,0,1.728,3.966,5.679,5.679,0,0,0,1.727,1.133q-.208.6-.44,1.156ZM32.519,4.5a5.319,5.319,0,0,1-1.363,3.489,4.645,4.645,0,0,1-3.858,1.9,3.881,3.881,0,0,1-.029-.472,5.464,5.464,0,0,1,1.446-3.525A5.569,5.569,0,0,1,30.477,4.57,5.254,5.254,0,0,1,32.493,4a4.528,4.528,0,0,1,.026.5Z" transform="translate(-16.77 -3.999)" fill="#fff"/>
  </g>
</svg>
