
<svg version="1.1" id="Icons" xmlns="http://www.w3.org/2000/svg" xmlns:xlink="http://www.w3.org/1999/xlink" 
	 viewBox="0 0 32 32" xml:space="preserve">
<style type="text/css">
	.st0{fill:none;stroke:#000000;stroke-width:1;stroke-linecap:round;stroke-linejoin:round;stroke-miterlimit:10;}
	.st1{fill:none;stroke:#000000;stroke-width:1;stroke-linejoin:round;stroke-miterlimit:10;}
</style>
<circle class="st0" cx="23" cy="22" r="7"/>
<line class="st0" x1="20.9" y1="19.9" x2="25.1" y2="24.1"/>
<line class="st0" x1="20.9" y1="24.1" x2="25.1" y2="19.9"/>
<path class="st0" d="M20.5,15.5c0.3-0.8,0.5-1.6,0.5-2.5v0c0-1.1,0.9-2,2-2h0l0-2.3c0-2.8-2.1-5.4-4.9-5.7c-2-0.2-3.8,0.6-4.9,2.1
	c-0.8-0.2-1.6-0.1-2.6,0.6C9.6,6.4,9,7.7,9,9l0,1v1.5v1.3c0,2.2,1.2,4.3,3,5.4v0c0,2.3-1.6,4.2-3.8,4.8c-2.6,0.7-4.5,2.8-5.1,5.4
	C3.1,28.7,3.3,29,3.7,29L23,29"/>
</svg>